<svg width="14" height="8" viewBox="0 0 14 8" fill="none" xmlns="http://www.w3.org/2000/svg">
<g id="19">
<path d="M0.570312 7.80123V7.05417H3.17402V2.30818H0.658201V1.57211H2.61372C3.06415 1.57211 3.23993 1.41831 3.29486 0.945906L3.36078 0.220823H4.0529V7.05417H6.31604V7.80123H0.570312Z" fill="white"/>
<path d="M10.492 7.87813C9.06376 7.87813 8.086 7.14206 7.86628 5.81274H8.77812C8.94291 6.72459 9.59109 7.17502 10.492 7.17502C11.9092 7.17502 12.5354 6.25219 12.5793 4.32962L12.7221 3.98905L12.7661 3.61553H12.6782C12.4255 4.30765 11.6345 4.92287 10.3272 4.92287C8.78911 4.92287 7.7674 4.07694 7.7674 2.62678C7.7674 1.16563 8.80009 0.121948 10.5908 0.121948C11.5906 0.121948 12.5244 0.506462 12.9968 1.31943C13.3483 1.94564 13.4692 2.7696 13.4692 3.96708C13.4692 6.66966 12.4694 7.87813 10.492 7.87813ZM8.62432 2.6048C8.62432 3.65947 9.36038 4.25272 10.5469 4.25272C11.8432 4.25272 12.5024 3.57158 12.5024 2.59382C12.5024 1.5062 11.7334 0.803086 10.5908 0.803086C9.29447 0.803086 8.62432 1.55014 8.62432 2.6048Z" fill="white"/>
</g>
</svg>
