<svg width="13" height="23" viewBox="0 0 13 23" fill="none" xmlns="http://www.w3.org/2000/svg">
<path d="M7.17754 8.24866C7.09603 8.27583 7.01665 8.20231 7.03749 8.11897L8.87694 0.761172C8.90657 0.64264 8.7485 0.572715 8.68073 0.674374L0.383602 13.1201C0.334668 13.1935 0.334858 13.2891 0.384083 13.3623L1.80815 15.4802C1.86276 15.5614 1.96485 15.5962 2.0577 15.5653L5.27124 14.4941C5.35274 14.4669 5.43212 14.5404 5.41129 14.6238L4.37309 18.7765L3.57184 21.9816C3.5422 22.1001 3.70027 22.17 3.76804 22.0684L6.41673 18.0953L7.16668 16.9704L11.2253 10.8825L12.087 9.58998C12.1242 9.53407 12.1336 9.46409 12.1124 9.40034L11.3422 7.08995C11.3042 6.97586 11.1809 6.91421 11.0668 6.95224L10.2636 7.21998L7.17754 8.24866Z" fill="#FF4E08"/>
</svg>
