<svg width="19" height="19" viewBox="0 0 19 19" fill="none" xmlns="http://www.w3.org/2000/svg">
<path d="M16.8274 7.72944H16.2215V7.69822H9.45206V10.7069H13.7029C13.0828 12.4583 11.4163 13.7155 9.45206 13.7155C6.95977 13.7155 4.93908 11.6948 4.93908 9.20255C4.93908 6.71026 6.95977 4.68957 9.45206 4.68957C10.6025 4.68957 11.6491 5.12356 12.4461 5.83248L14.5736 3.70498C13.2302 2.45301 11.4333 1.68091 9.45206 1.68091C5.29824 1.68091 1.93042 5.04872 1.93042 9.20255C1.93042 13.3564 5.29824 16.7242 9.45206 16.7242C13.6059 16.7242 16.9737 13.3564 16.9737 9.20255C16.9737 8.69823 16.9218 8.20594 16.8274 7.72944Z" fill="#FFC107"/>
<path d="M2.79773 5.7016L5.26897 7.51394C5.93764 5.85843 7.55705 4.68957 9.45213 4.68957C10.6026 4.68957 11.6492 5.12356 12.4461 5.83248L14.5736 3.70498C13.2303 2.45301 11.4333 1.68091 9.45213 1.68091C6.56306 1.68091 4.0576 3.31198 2.79773 5.7016Z" fill="#FF3D00"/>
<path d="M9.45213 16.7241C11.395 16.7241 13.1603 15.9805 14.495 14.7714L12.1671 12.8015C11.4119 13.3735 10.4732 13.7154 9.45213 13.7154C7.49575 13.7154 5.83459 12.4679 5.20879 10.7271L2.75598 12.6169C4.00081 15.0527 6.52884 16.7241 9.45213 16.7241Z" fill="#4CAF50"/>
<path d="M16.8275 7.72946H16.2216V7.69824H9.45215V10.7069H13.703C13.4051 11.5482 12.864 12.2737 12.166 12.8021L12.1671 12.8013L14.495 14.7712C14.3303 14.9209 16.9738 12.9634 16.9738 9.20257C16.9738 8.69824 16.9219 8.20595 16.8275 7.72946Z" fill="#1976D2"/>
</svg>
