<svg width="30" height="42" viewBox="0 0 30 42" fill="none" xmlns="http://www.w3.org/2000/svg">
<path d="M15 20.5C13.6739 20.5 12.4021 19.9732 11.4645 19.0355C10.5268 18.0979 10 16.8261 10 15.5C10 14.1739 10.5268 12.9021 11.4645 11.9645C12.4021 11.0268 13.6739 10.5 15 10.5C16.3261 10.5 17.5979 11.0268 18.5355 11.9645C19.4732 12.9021 20 14.1739 20 15.5C20 16.8261 19.4732 18.0979 18.5355 19.0355C17.5979 19.9732 16.3261 20.5 15 20.5Z" fill="#880101"/>
<path fill-rule="evenodd" clip-rule="evenodd" d="M15 1C7.26 1 1 7.26 1 15C1 18.48 2 21.74 3.82 24.68C5.72 27.76 8.22 30.4 10.14 33.48C11.08 34.98 11.76 36.38 12.48 38C13 39.1 13.42 41 15 41C16.58 41 17 39.1 17.5 38C18.24 36.38 18.9 34.98 19.84 33.48C21.76 30.42 24.26 27.78 26.16 24.68C28 21.74 29 18.48 29 15C29 7.26 22.74 1 15 1ZM11.4645 19.0355C12.4021 19.9732 13.6739 20.5 15 20.5C16.3261 20.5 17.5979 19.9732 18.5355 19.0355C19.4732 18.0979 20 16.8261 20 15.5C20 14.1739 19.4732 12.9021 18.5355 11.9645C17.5979 11.0268 16.3261 10.5 15 10.5C13.6739 10.5 12.4021 11.0268 11.4645 11.9645C10.5268 12.9021 10 14.1739 10 15.5C10 16.8261 10.5268 18.0979 11.4645 19.0355Z" fill="#B90808"/>
<path d="M15 20.5C13.6739 20.5 12.4021 19.9732 11.4645 19.0355C10.5268 18.0979 10 16.8261 10 15.5C10 14.1739 10.5268 12.9021 11.4645 11.9645C12.4021 11.0268 13.6739 10.5 15 10.5C16.3261 10.5 17.5979 11.0268 18.5355 11.9645C19.4732 12.9021 20 14.1739 20 15.5C20 16.8261 19.4732 18.0979 18.5355 19.0355C17.5979 19.9732 16.3261 20.5 15 20.5Z" stroke="#FEFEFE" stroke-width="1.2"/>
<path fill-rule="evenodd" clip-rule="evenodd" d="M15 1C7.26 1 1 7.26 1 15C1 18.48 2 21.74 3.82 24.68C5.72 27.76 8.22 30.4 10.14 33.48C11.08 34.98 11.76 36.38 12.48 38C13 39.1 13.42 41 15 41C16.58 41 17 39.1 17.5 38C18.24 36.38 18.9 34.98 19.84 33.48C21.76 30.42 24.26 27.78 26.16 24.68C28 21.74 29 18.48 29 15C29 7.26 22.74 1 15 1ZM11.4645 19.0355C12.4021 19.9732 13.6739 20.5 15 20.5C16.3261 20.5 17.5979 19.9732 18.5355 19.0355C19.4732 18.0979 20 16.8261 20 15.5C20 14.1739 19.4732 12.9021 18.5355 11.9645C17.5979 11.0268 16.3261 10.5 15 10.5C13.6739 10.5 12.4021 11.0268 11.4645 11.9645C10.5268 12.9021 10 14.1739 10 15.5C10 16.8261 10.5268 18.0979 11.4645 19.0355Z" stroke="#FEFEFE" stroke-width="1.2"/>
</svg>
